<svg aria-hidden="true" style="position: absolute; width: 0; height: 0; overflow: hidden;" version="1.1" xmlns="http://www.w3.org/2000/svg" xmlns:xlink="http://www.w3.org/1999/xlink">
<defs>
<symbol id="facebook-logo-button" viewBox="0 0 32 32">
<title>facebook-logo-button</title>
<path  d="M16 0c-8.836 0-16 7.164-16 16s7.164 16 16 16 16-7.164 16-16c0-8.838-7.164-16-16-16zM20.136 15.998l-2.622 0.002-0.002 9.6h-3.598v-9.6h-2.4v-3.308l2.4-0.002-0.004-1.948c0-2.7 0.732-4.342 3.91-4.342h2.648v3.31h-1.656c-1.238 0-1.298 0.462-1.298 1.324l-0.004 1.656h2.976l-0.35 3.308z"></path>
</symbol>
<symbol id="play-button-silhouette" viewBox="0 0 32 32">
<title>play-button-silhouette</title>
<path d="M16 0c-8.836 0-16 7.164-16 16s7.164 16 16 16 16-7.164 16-16c0-8.838-7.164-16-16-16zM25.83 19.582c-0.108 1.332-1.12 3.032-2.534 3.278-4.53 0.352-9.898 0.308-14.59 0-1.464-0.184-2.426-1.948-2.534-3.278-0.228-2.796-0.228-4.388 0-7.184 0.108-1.33 1.094-3.084 2.534-3.244 4.638-0.39 10.036-0.306 14.59 0 1.628 0.060 2.426 1.738 2.534 3.070 0.224 2.796 0.224 4.562 0 7.358z"></path>
<path d="M14 20l6-4-6-4z"></path>
</symbol>
<symbol id="social-instagram-circle" viewBox="0 0 32 32">
<title>social-instagram-circle</title>
<path d="M16 0c-8.836 0-16 7.164-16 16s7.164 16 16 16 16-7.164 16-16c0-8.838-7.164-16-16-16zM25.999 25.279c0 0.397-0.323 0.72-0.725 0.72h-18.553c-0.397 0-0.722-0.321-0.722-0.72v-18.558c0-0.397 0.323-0.722 0.722-0.722h18.553c0.399 0 0.725 0.323 0.725 0.722 0 0 0 18.558 0 18.558zM11.999 16c0-2.209 1.792-4.001 4.001-4.001s4.001 1.792 4.001 4.001-1.792 4.001-4.001 4.001-4.001-1.792-4.001-4.001zM20.001 7.999h4.001v4.001h-4.001v-4.001zM21.819 15h2.183v8.999h-16v-8.999h2.185c-0.085 0.401-0.135 0.575-0.135 1 0 3.285 2.671 5.951 5.951 5.951 3.285 0 5.951-2.666 5.951-5.951-0.002-0.425-0.050-0.599-0.134-1z"></path>
</symbol>
<symbol id="twitter" viewBox="0 0 32 32">
<title>twitter</title>
<path d="M16 0c-8.836 0-16 7.164-16 16s7.164 16 16 16 16-7.164 16-16c0-8.838-7.164-16-16-16zM23.96 12.408l0.012 0.51c0 5.208-3.962 11.208-11.208 11.208-2.224 0-4.294-0.652-6.038-1.77 0.308 0.036 0.622 0.056 0.94 0.056 1.846 0 3.544-0.63 4.892-1.686-1.724-0.032-3.178-1.172-3.68-2.736 0.242 0.046 0.486 0.068 0.742 0.068 0.36 0 0.708-0.046 1.038-0.136-1.802-0.364-3.16-1.954-3.16-3.862v-0.050c0.532 0.296 1.138 0.472 1.784 0.494-1.056-0.706-1.752-1.912-1.752-3.278 0-0.722 0.194-1.398 0.532-1.98 1.942 2.384 4.846 3.952 8.12 4.116-0.068-0.288-0.102-0.59-0.102-0.898 0-2.174 1.764-3.938 3.94-3.938 1.132 0 2.156 0.478 2.876 1.244 0.896-0.178 1.74-0.506 2.502-0.956-0.294 0.92-0.918 1.692-1.732 2.18 0.794-0.094 1.556-0.308 2.262-0.62-0.528 0.788-1.198 1.482-1.968 2.034z"></path>
</symbol>
</defs>
</svg>
